<?xml version="1.0" encoding="UTF-8" standalone="no"?>
<svg
   xmlns:dc="http://purl.org/dc/elements/1.1/"
   xmlns:cc="http://creativecommons.org/ns#"
   xmlns:rdf="http://www.w3.org/1999/02/22-rdf-syntax-ns#"
   xmlns:svg="http://www.w3.org/2000/svg"
   xmlns="http://www.w3.org/2000/svg"
   xmlns:sodipodi="http://sodipodi.sourceforge.net/DTD/sodipodi-0.dtd"
   xmlns:inkscape="http://www.inkscape.org/namespaces/inkscape"
   id="Layer_1"
   data-name="Layer 1"
   viewBox="0 0 129.77001 145.21999"
   version="1.1"
   sodipodi:docname="RouteThis.svg"
   width="129.77"
   height="145.22"
   inkscape:version="0.92.4 (5da689c313, 2019-01-14)">
  <metadata
     id="metadata38">
    <rdf:RDF>
      <cc:Work
         rdf:about="">
        <dc:format>image/svg+xml</dc:format>
        <dc:type
           rdf:resource="http://purl.org/dc/dcmitype/StillImage" />
      </cc:Work>
    </rdf:RDF>
  </metadata>
  <sodipodi:namedview
     pagecolor="#ffffff"
     bordercolor="#666666"
     borderopacity="1"
     objecttolerance="10"
     gridtolerance="10"
     guidetolerance="10"
     inkscape:pageopacity="0"
     inkscape:pageshadow="2"
     inkscape:window-width="1920"
     inkscape:window-height="1017"
     id="namedview36"
     showgrid="false"
     inkscape:zoom="1.8766004"
     inkscape:cx="352.15088"
     inkscape:cy="30.632336"
     inkscape:window-x="-8"
     inkscape:window-y="-8"
     inkscape:window-maximized="1"
     inkscape:current-layer="Layer_1" />
  <defs
     id="defs7">
    <style
       id="style2">.cls-1{fill:none;clip-rule:evenodd;}.cls-2{fill:#58dbb9;fill-rule:evenodd;}.cls-3{clip-path:url(#clip-path);}.cls-4{fill:#4ebba1;}.cls-5{fill:#474242;}</style>
    <clipPath
       id="clip-path">
      <path
         class="cls-1"
         d="m 70.08,2.91 h 1.64 c 0.42,0.08 0.85,0.16 1.26,0.26 a 8.53,8.53 0 0 1 6.42,8.32 q 0,18.48 0,37 v 0.46 h 10.89 v -0.46 q 0,-8.21 0,-16.41 a 12.23,12.23 0 0 1 0.08,-1.48 8.39,8.39 0 0 1 16.69,1.31 q 0,20.33 0,40.64 V 73 h 11 v -0.46 q 0,-10.64 0,-21.26 a 9.57,9.57 0 0 1 0.16,-1.85 8.53,8.53 0 0 1 16.29,-1.43 20.94,20.94 0 0 1 0.61,2.36 v 50.35 c -0.05,0.25 -0.1,0.5 -0.14,0.76 A 8.54,8.54 0 0 1 118,99.8 V 78 h -11 v 0.51 q 0,20.26 0,40.54 a 10.5,10.5 0 0 1 -0.09,1.48 8.39,8.39 0 0 1 -16.69,-1.4 V 53.87 H 79.4 v 85.6 a 8.53,8.53 0 0 1 -6.71,8.46 l -1,0.2 h -1.61 c -0.33,-0.06 -0.66,-0.11 -1,-0.18 A 8.55,8.55 0 0 1 62.3,139.49 V 108.17 H 50.69 v 0.46 q 0,5.25 0,10.48 a 8.93,8.93 0 0 1 -0.09,1.37 8.39,8.39 0 0 1 -16.68,-1.33 q 0,-25.65 0,-51.3 v -0.47 h -11.5 v 0.5 q 0,15.93 0,31.84 a 9.78,9.78 0 0 1 -0.14,1.71 8.53,8.53 0 0 1 -16.48,1.2 C 5.6,102 5.5,101.34 5.35,100.69 V 50.34 c 0,-0.25 0.1,-0.5 0.14,-0.75 a 8.54,8.54 0 0 1 16.94,1.65 V 62.41 H 33.9 v -0.5 q 0,-14.92 0,-29.87 c 0,-0.41 0,-0.82 0.06,-1.22 a 8.39,8.39 0 0 1 16.72,1.05 V 103.2 H 62.32 V 11.54 a 8.49,8.49 0 0 1 5.5,-8.06 18.68,18.68 0 0 1 2.26,-0.57 z"
         id="path4"
         inkscape:connector-curvature="0"
         style="clip-rule:evenodd;fill:none" />
    </clipPath>
  </defs>
  <title
     id="title9">logo-full</title>
  <path
     class="cls-2"
     d="m 64.73,0 h 1.64 c 0.42,0.08 0.85,0.16 1.26,0.26 a 8.53,8.53 0 0 1 6.42,8.32 q 0,18.48 0,37 v 0.46 h 10.89 v -0.46 q 0,-8.21 0,-16.41 a 12.23,12.23 0 0 1 0.08,-1.48 8.39,8.39 0 0 1 16.69,1.31 q 0,20.33 0,40.64 v 0.45 h 11 v -0.46 q 0,-10.64 0,-21.26 a 9.57,9.57 0 0 1 0.16,-1.85 8.53,8.53 0 0 1 16.29,-1.43 20.94,20.94 0 0 1 0.61,2.36 V 97.8 c -0.05,0.25 -0.1,0.5 -0.14,0.76 a 8.54,8.54 0 0 1 -16.98,-1.67 v -21.8 h -11 v 0.51 q 0,20.26 0,40.54 a 10.5,10.5 0 0 1 -0.09,1.48 8.39,8.39 0 0 1 -16.69,-1.4 V 50.96 H 74.05 v 85.6 a 8.53,8.53 0 0 1 -6.71,8.46 l -1,0.2 h -1.61 c -0.33,-0.06 -0.66,-0.11 -1,-0.18 a 8.55,8.55 0 0 1 -6.78,-8.46 V 105.26 H 45.34 v 0.46 q 0,5.25 0,10.48 a 8.93,8.93 0 0 1 -0.09,1.37 8.39,8.39 0 0 1 -16.68,-1.33 q 0,-25.65 0,-51.3 v -0.47 h -11.5 v 0.5 q 0,15.93 0,31.84 a 9.78,9.78 0 0 1 -0.14,1.71 8.53,8.53 0 0 1 -16.48,1.2 C 0.25,99.09 0.15,98.43 0,97.78 V 47.43 c 0,-0.25 0.1,-0.5 0.14,-0.75 a 8.54,8.54 0 0 1 16.94,1.65 V 59.5 H 28.55 V 59 q 0,-14.92 0,-29.87 c 0,-0.41 0,-0.82 0.06,-1.22 a 8.39,8.39 0 0 1 16.72,1.05 v 71.33 H 56.97 V 8.63 A 8.49,8.49 0 0 1 62.47,0.57 18.68,18.68 0 0 1 64.73,0 Z"
     id="path11"
     inkscape:connector-curvature="0"
     style="fill:#58dbb9;fill-rule:evenodd" />
  <g
     class="cls-3"
     clip-path="url(#clip-path)"
     id="g15"
     transform="translate(-5.35,-2.91)">
    <rect
       class="cls-4"
       x="-115.66"
       y="74.160004"
       width="306.67001"
       height="133.33"
       transform="rotate(30,37.674019,140.82528)"
       id="rect13"
       style="fill:#4ebba1" />
  </g>
</svg>
